<svg xmlns="http://www.w3.org/2000/svg" version="1.1" xmlns:xlink="http://www.w3.org/1999/xlink" width="500" height="500"><svg xmlns="http://www.w3.org/2000/svg" xmlns:xlink="http://www.w3.org/1999/xlink" width="500" zoomAndPan="magnify" viewBox="0 0 375 374.999991" height="500" preserveAspectRatio="xMidYMid meet" version="1.2"><defs><clipPath id="SvgjsClipPath1021"><path d="M 1.996094 1.734375 L 373.003906 1.734375 L 373.003906 373 L 1.996094 373 Z M 1.996094 1.734375 "></path></clipPath><clipPath id="SvgjsClipPath1020"><path d="M 19.246094 1.734375 L 355.753906 1.734375 C 360.328125 1.734375 364.71875 3.550781 367.953125 6.785156 C 371.1875 10.023438 373.003906 14.410156 373.003906 18.984375 L 373.003906 356.015625 C 373.003906 360.589844 371.1875 364.976562 367.953125 368.214844 C 364.71875 371.449219 360.328125 373.265625 355.753906 373.265625 L 19.246094 373.265625 C 14.671875 373.265625 10.28125 371.449219 7.046875 368.214844 C 3.8125 364.976562 1.996094 360.589844 1.996094 356.015625 L 1.996094 18.984375 C 1.996094 14.410156 3.8125 10.023438 7.046875 6.785156 C 10.28125 3.550781 14.671875 1.734375 19.246094 1.734375 Z M 19.246094 1.734375 "></path></clipPath><clipPath id="SvgjsClipPath1019"><path d="M 70.464844 207 L 126 207 L 126 223.054688 L 70.464844 223.054688 Z M 70.464844 207 "></path></clipPath><clipPath id="SvgjsClipPath1018"><path d="M 70.464844 165.304688 L 70.464844 209.695312 C 70.464844 217.152344 76.507812 223.195312 83.964844 223.195312 L 291.035156 223.195312 C 298.492188 223.195312 304.535156 217.152344 304.535156 209.695312 L 304.535156 165.304688 C 304.535156 157.847656 298.492188 151.804688 291.035156 151.804688 L 83.964844 151.804688 C 76.507812 151.804688 70.464844 157.847656 70.464844 165.304688 Z M 70.464844 165.304688 "></path></clipPath><clipPath id="SvgjsClipPath1017"><path d="M 139 160 L 208 160 L 208 223.054688 L 139 223.054688 Z M 139 160 "></path></clipPath><clipPath id="SvgjsClipPath1016"><path d="M 70.464844 165.304688 L 70.464844 209.695312 C 70.464844 217.152344 76.507812 223.195312 83.964844 223.195312 L 291.035156 223.195312 C 298.492188 223.195312 304.535156 217.152344 304.535156 209.695312 L 304.535156 165.304688 C 304.535156 157.847656 298.492188 151.804688 291.035156 151.804688 L 83.964844 151.804688 C 76.507812 151.804688 70.464844 157.847656 70.464844 165.304688 Z M 70.464844 165.304688 "></path></clipPath><clipPath id="SvgjsClipPath1015"><path d="M 70.464844 151.804688 L 304.464844 151.804688 L 304.464844 223.054688 L 70.464844 223.054688 Z M 70.464844 151.804688 "></path></clipPath><clipPath id="SvgjsClipPath1014"><path d="M 70.464844 165.304688 L 70.464844 209.695312 C 70.464844 217.152344 76.507812 223.195312 83.964844 223.195312 L 291.035156 223.195312 C 298.492188 223.195312 304.535156 217.152344 304.535156 209.695312 L 304.535156 165.304688 C 304.535156 157.847656 298.492188 151.804688 291.035156 151.804688 L 83.964844 151.804688 C 76.507812 151.804688 70.464844 157.847656 70.464844 165.304688 Z M 70.464844 165.304688 "></path></clipPath></defs><g id="SvgjsG1013"><g clip-rule="nonzero" clip-path="url(#1b490e43e1)"><g clip-rule="nonzero" clip-path="url(#27c7275574)"><path style=" stroke:none;fill-rule:nonzero;fill:#ff66c4;fill-opacity:1;" d="M 1.996094 1.734375 L 373.003906 1.734375 L 373.003906 372.746094 L 1.996094 372.746094 Z M 1.996094 1.734375 "></path></g></g><g clip-rule="nonzero" clip-path="url(#74256bbccc)"><g clip-rule="nonzero" clip-path="url(#528c2e9c89)"><path style=" stroke:none;fill-rule:nonzero;fill:#161c28;fill-opacity:1;" d="M 125.625 223.054688 L 70.835938 223.054688 L 70.835938 207.132812 L 125.625 207.132812 L 125.625 223.054688 "></path></g></g><g clip-rule="nonzero" clip-path="url(#d48f50b1f0)"><g clip-rule="nonzero" clip-path="url(#e5ca2cb6e8)"><path style=" stroke:none;fill-rule:nonzero;fill:#161c28;fill-opacity:1;" d="M 207.960938 223.054688 L 139.078125 223.054688 L 176.519531 160.835938 L 190.191406 169.035156 L 167.265625 207.132812 L 207.960938 207.132812 L 207.960938 223.054688 "></path></g></g><g clip-rule="nonzero" clip-path="url(#4c0b637868)"><g clip-rule="nonzero" clip-path="url(#8b0c447d5a)"><path style="fill:none;stroke-width:590.60901;stroke-linecap:butt;stroke-linejoin:miter;stroke:#161c28;stroke-opacity:1;stroke-miterlimit:10;" d="M 8049.02884 5898.50778 L 7034.532915 4141.289463 L 9063.524765 4141.289463 Z M 8049.02884 5898.50778 " transform="matrix(0.0270031,0,0,-0.026958,45.549736,326.734637)"></path></g></g></g></svg><style>@media (prefers-color-scheme: light) { :root { filter: none; } }
@media (prefers-color-scheme: dark) { :root { filter: none; } }
</style></svg>